<svg xmlns="http://www.w3.org/2000/svg" width="700" height="900" viewBox="0 0 700 900">
  <defs>
    <radialGradient id="g" cx="50%" cy="44%" r="55%">
      <stop offset="0%" stop-color="#FFCA28" stop-opacity="0.16"/>
      <stop offset="100%" stop-color="#FFCA28" stop-opacity="0"/>
    </radialGradient>
  </defs>
  <rect x="0" y="0" width="700" height="900" rx="48" fill="#121212"/>
  <rect x="0" y="0" width="700" height="900" rx="48" fill="url(#g)"/>
  <rect x="3" y="3" width="694" height="894" rx="45" fill="none" stroke="#ffffff" stroke-opacity="0.10" stroke-width="2"/>
  <g transform="translate(350 450) scale(11.666666666666666) translate(-12 -12)" fill="#FFCA28">
    <path d="M3.89 15.672L6.255.461A.542.542 0 017.27.288l2.543 4.771zm16.794 3.692l-2.25-14a.54.54 0 00-.919-.295L3.316 19.365l7.856 4.427a1.621 1.621 0 001.588 0zM14.3 7.147l-1.82-3.482a.542.542 0 00-.96 0L3.53 17.984z"/>
  </g>
</svg>
